<svg width="116" height="32" viewBox="0 0 116 32" fill="none" xmlns="http://www.w3.org/2000/svg">
<rect y="0.000976562" width="32" height="32" rx="6" fill="#FFB433"/>
<path d="M20.7157 8.61093C22.3012 8.98342 23.7841 10.4925 24.2225 12.1735C24.4929 13.205 24.3344 14.6758 23.8401 15.6787C23.523 16.3091 22.6649 17.226 22.0401 17.608C21.7416 17.7895 18.3281 19.1457 14.439 20.6357C8.88979 22.7655 7.33228 23.3291 7.21104 23.2431C7.07114 23.1571 7.05249 22.8706 7.02451 20.8553C7.00585 19.0884 7.03383 18.5344 7.11777 18.4676C7.18306 18.4103 8.01311 18.0855 8.96441 17.7226C9.9157 17.3692 10.8763 17.0063 11.1095 16.9108C11.3426 16.8248 13.124 16.1371 15.0732 15.3922C19.9416 13.5297 19.7364 13.6157 19.7364 13.4151C19.7364 13.2432 19.4939 13.2336 13.4877 13.1859C10.0463 13.1572 7.18306 13.0999 7.1271 13.0617C6.95922 12.9566 6.95922 8.78284 7.11777 8.62048C7.26699 8.46766 20.0815 8.45811 20.7157 8.61093Z" fill="#080808"/>
<path d="M23.038 20.8649C24.0359 21.8869 24.8846 22.7751 24.9219 22.8515C25.0432 23.0425 25.0245 23.1858 24.8566 23.3482C24.7354 23.4819 24.3344 23.501 21.9375 23.501H19.1675L17.8712 22.1543C17.153 21.4093 16.6121 20.7789 16.6587 20.7598C17.0504 20.5879 21.0608 19.0311 21.1447 19.0215C21.1914 19.0215 22.0494 19.8429 23.038 20.8649Z" fill="#080808"/>
<path d="M56.82 22.001L53.994 17.177H51.024V22.001H49.35V9.40098H54.39C55.47 9.40098 56.394 9.78498 57.162 10.553C57.93 11.309 58.314 12.227 58.314 13.307C58.314 14.123 58.068 14.867 57.576 15.539C57.096 16.211 56.472 16.685 55.704 16.961L58.674 22.001H56.82ZM51.024 10.967V15.665H54.39C55.014 15.665 55.542 15.437 55.974 14.981C56.418 14.513 56.64 13.955 56.64 13.307C56.64 12.659 56.418 12.107 55.974 11.651C55.542 11.195 55.014 10.967 54.39 10.967H51.024ZM66.2085 13.001H67.7745V22.001H66.2085V20.705C65.5725 21.725 64.6005 22.235 63.2925 22.235C62.2365 22.235 61.3905 21.905 60.7545 21.245C60.1185 20.573 59.8005 19.667 59.8005 18.527V13.001H61.3665V18.437C61.3665 19.169 61.5645 19.739 61.9605 20.147C62.3565 20.543 62.9025 20.741 63.5985 20.741C64.3785 20.741 65.0085 20.501 65.4885 20.021C65.9685 19.529 66.2085 18.779 66.2085 17.771V13.001ZM79.8787 12.767C80.8867 12.767 81.7027 13.097 82.3267 13.757C82.9507 14.405 83.2627 15.287 83.2627 16.403V22.001H81.6967V16.457C81.6967 15.761 81.5167 15.221 81.1567 14.837C80.7967 14.453 80.3167 14.261 79.7167 14.261C79.0447 14.261 78.5047 14.489 78.0967 14.945C77.7007 15.389 77.5027 16.073 77.5027 16.997V22.001H75.9367V16.457C75.9367 15.761 75.7627 15.221 75.4147 14.837C75.0787 14.453 74.6167 14.261 74.0287 14.261C73.3687 14.261 72.8167 14.489 72.3727 14.945C71.9407 15.401 71.7247 16.085 71.7247 16.997V22.001H70.1587V13.001H71.7247V14.207C72.3367 13.247 73.2307 12.767 74.4067 12.767C75.6187 12.767 76.5007 13.277 77.0527 14.297C77.6767 13.277 78.6187 12.767 79.8787 12.767ZM86.5321 18.221C86.6881 19.025 87.0541 19.649 87.6301 20.093C88.2181 20.537 88.9381 20.759 89.7901 20.759C90.9781 20.759 91.8421 20.321 92.3821 19.445L93.7141 20.201C92.8381 21.557 91.5181 22.235 89.7541 22.235C88.3261 22.235 87.1621 21.791 86.2621 20.903C85.3741 20.003 84.9301 18.869 84.9301 17.501C84.9301 16.145 85.3681 15.017 86.2441 14.117C87.1201 13.217 88.2541 12.767 89.6461 12.767C90.9661 12.767 92.0401 13.235 92.8681 14.171C93.7081 15.095 94.1281 16.211 94.1281 17.519C94.1281 17.747 94.1101 17.981 94.0741 18.221H86.5321ZM89.6461 14.243C88.8061 14.243 88.1101 14.483 87.5581 14.963C87.0061 15.431 86.6641 16.061 86.5321 16.853H92.5441C92.4121 16.001 92.0761 15.353 91.5361 14.909C90.9961 14.465 90.3661 14.243 89.6461 14.243ZM103.363 9.40098H104.929V22.001H103.363V20.453C102.583 21.641 101.449 22.235 99.9607 22.235C98.7007 22.235 97.6267 21.779 96.7387 20.867C95.8507 19.943 95.4067 18.821 95.4067 17.501C95.4067 16.181 95.8507 15.065 96.7387 14.153C97.6267 13.229 98.7007 12.767 99.9607 12.767C101.449 12.767 102.583 13.361 103.363 14.549V9.40098ZM100.159 20.723C101.071 20.723 101.833 20.417 102.445 19.805C103.057 19.181 103.363 18.413 103.363 17.501C103.363 16.589 103.057 15.827 102.445 15.215C101.833 14.591 101.071 14.279 100.159 14.279C99.2587 14.279 98.5027 14.591 97.8907 15.215C97.2787 15.827 96.9727 16.589 96.9727 17.501C96.9727 18.413 97.2787 19.181 97.8907 19.805C98.5027 20.417 99.2587 20.723 100.159 20.723ZM113.583 13.001H115.257L111.585 22.559C111.201 23.579 110.661 24.353 109.965 24.881C109.281 25.421 108.489 25.661 107.589 25.601V24.143C108.693 24.227 109.503 23.615 110.019 22.307L110.181 21.965L106.257 13.001H107.931L110.991 20.057L113.583 13.001Z" fill="#FBFBFB"/>
</svg>
