<svg xmlns="http://www.w3.org/2000/svg" width="46" height="46" fill="none"><path fill="#43BAFF" d="M28.571 3.082a.643.643 0 0 0-.043-.944 8.89 8.89 0 0 0-12.08.476L3.104 15.962a8.904 8.904 0 0 0-.475 12.068.647.647 0 0 0 .947.048zM42.89 16.469 36.045 9.62a4.447 4.447 0 0 0-6.29 0L7.412 31.974a.64.64 0 0 0 0 .9l2.685 2.686a4.447 4.447 0 0 0 6.29 0l15.878-15.885a.63.63 0 0 1 .899 0l.218.218a4.45 4.45 0 0 1 0 6.29L17.536 42.038a.647.647 0 0 0 .052.952 8.89 8.89 0 0 0 11.957-.573L42.89 29.065a8.9 8.9 0 0 0 0-12.596"/></svg>