<svg xmlns="http://www.w3.org/2000/svg" width="148" height="32" fill="none"><path fill="#43BAFF" d="M19.962 2.19a.457.457 0 0 0-.031-.67 6.323 6.323 0 0 0-8.59.338l-9.49 9.487a6.327 6.327 0 0 0-.338 8.577.46.46 0 0 0 .674.034zM30.145 11.705l-4.868-4.867a3.163 3.163 0 0 0-4.473 0L4.916 22.725a.457.457 0 0 0 0 .64l1.91 1.91a3.164 3.164 0 0 0 4.472 0l11.29-11.291a.45.45 0 0 1 .64 0l.155.155a3.163 3.163 0 0 1 0 4.47L12.116 29.878a.46.46 0 0 0 .037.677 6.323 6.323 0 0 0 8.503-.407l9.49-9.49a6.325 6.325 0 0 0 0-8.953"/><path fill="#fff" d="M40.136 8.286V4.229H59.25v4.057h-7.125v19.216h-4.864V8.285zM66.77 27.842q-2.692 0-4.636-1.09a7.47 7.47 0 0 1-2.977-3.114q-1.046-2.023-1.046-4.784 0-2.693 1.046-4.727 1.045-2.035 2.943-3.171 1.909-1.136 4.477-1.136 1.727 0 3.216.556 1.5.546 2.613 1.648 1.126 1.103 1.75 2.773.625 1.659.625 3.886v1.33H60.043v-3h10.182q0-1.046-.455-1.852a3.26 3.26 0 0 0-1.261-1.262q-.795-.465-1.853-.466-1.102 0-1.954.512-.84.5-1.318 1.352a3.8 3.8 0 0 0-.489 1.875v2.852q0 1.296.477 2.239a3.5 3.5 0 0 0 1.375 1.454q.887.512 2.103.512.807 0 1.477-.227.67-.229 1.148-.682.477-.455.727-1.114l4.477.296a6.1 6.1 0 0 1-1.398 2.818q-1.045 1.193-2.704 1.863-1.648.66-3.807.66m18.097 0q-2.682 0-4.614-1.136a7.7 7.7 0 0 1-2.954-3.182q-1.023-2.033-1.023-4.682 0-2.681 1.034-4.704 1.046-2.034 2.966-3.17 1.92-1.149 4.568-1.148 2.284 0 4 .83 1.716.829 2.716 2.329t1.102 3.523h-4.568q-.194-1.307-1.022-2.103-.819-.807-2.148-.807-1.126 0-1.966.614-.83.603-1.296 1.761-.465 1.16-.466 2.807 0 1.67.455 2.841.465 1.17 1.307 1.784.84.614 1.966.614.83 0 1.488-.341a2.9 2.9 0 0 0 1.103-.989q.442-.66.58-1.58h4.567q-.113 2-1.09 3.523-.967 1.512-2.671 2.364t-4.034.852m14.321-5.363.011-5.807h.705l5.591-6.625h5.557l-7.512 8.773h-1.147zm-4.386 5.023V4.229h4.84v23.273zm10.909 0-5.136-7.603 3.227-3.42 7.579 11.023zm11.142-5.023.012-5.807h.704l5.591-6.625h5.557l-7.512 8.773h-1.147zm-4.386 5.023V4.229h4.841v23.273zm10.909 0-5.136-7.603 3.227-3.42 7.579 11.023zm13.923.34q-2.647 0-4.579-1.125a7.7 7.7 0 0 1-2.966-3.159q-1.045-2.034-1.045-4.716 0-2.704 1.045-4.727 1.046-2.034 2.966-3.159 1.932-1.136 4.579-1.136 2.648 0 4.569 1.136 1.931 1.125 2.977 3.16 1.045 2.022 1.045 4.726 0 2.682-1.045 4.716a7.7 7.7 0 0 1-2.977 3.16q-1.92 1.125-4.569 1.124m.023-3.75q1.205 0 2.012-.681.806-.694 1.215-1.887.421-1.192.421-2.716 0-1.522-.421-2.716-.409-1.193-1.215-1.886-.807-.693-2.012-.693-1.215 0-2.045.693-.819.692-1.239 1.886-.41 1.194-.409 2.716 0 1.522.409 2.716.42 1.193 1.239 1.887.83.681 2.045.681"/></svg>